<svg id="svg" version="1.1" xmlns="http://www.w3.org/2000/svg" xmlns:xlink="http://www.w3.org/1999/xlink" width="400" height="400" viewBox="0, 0, 400,400"><g id="svgg"><path id="path0" d="M192.800 2.400 C 192.800 3.943,193.059 3.943,193.285 2.400 C 193.382 1.740,193.313 1.200,193.131 1.200 C 192.949 1.200,192.800 1.740,192.800 2.400 M197.584 1.819 C 197.173 2.315,197.002 2.334,196.727 1.919 C 196.503 1.582,196.441 1.757,196.550 2.417 C 196.642 2.976,196.472 3.876,196.173 4.417 C 195.873 4.958,195.618 5.220,195.605 5.000 C 195.592 4.780,195.299 5.230,194.953 6.000 C 194.079 7.943,193.107 9.762,192.815 10.000 C 192.680 10.110,192.216 10.767,191.785 11.461 C 190.985 12.746,187.433 16.924,185.567 18.776 C 184.999 19.339,184.407 20.310,184.251 20.934 C 184.095 21.558,183.550 22.458,183.039 22.934 C 182.529 23.410,181.983 24.208,181.826 24.707 C 181.670 25.206,181.015 26.192,180.371 26.897 C 179.727 27.602,179.200 28.396,179.200 28.662 C 179.200 28.928,178.674 29.520,178.031 29.978 C 177.387 30.436,176.745 31.340,176.603 31.987 C 176.461 32.634,176.033 33.263,175.652 33.384 C 175.271 33.504,174.728 34.244,174.444 35.028 C 174.161 35.811,173.676 36.549,173.367 36.668 C 173.057 36.787,172.423 37.561,171.958 38.389 C 171.249 39.650,170.923 39.878,169.947 39.795 C 169.022 39.717,168.872 39.805,169.220 40.224 C 170.007 41.172,169.491 42.890,168.207 43.599 C 167.306 44.096,166.933 44.667,166.683 45.929 C 166.431 47.203,166.168 47.600,165.576 47.600 C 164.985 47.600,164.800 47.879,164.800 48.771 C 164.800 50.076,163.902 51.200,162.860 51.200 C 162.485 51.200,161.873 51.556,161.500 51.992 C 160.625 53.013,159.430 52.664,160.021 51.560 C 160.245 51.142,160.632 50.800,160.881 50.800 C 161.130 50.800,161.207 50.674,161.053 50.519 C 160.750 50.216,158.758 52.170,158.843 52.687 C 159.079 54.116,158.754 54.680,157.800 54.498 C 157.230 54.389,156.779 54.499,156.750 54.753 C 156.722 54.999,156.655 55.380,156.600 55.600 C 156.545 55.820,156.478 56.167,156.450 56.372 C 156.423 56.577,155.995 56.822,155.500 56.918 C 154.802 57.052,154.872 57.103,155.815 57.146 C 157.374 57.215,157.740 59.176,156.374 60.133 C 155.915 60.455,155.238 61.321,154.870 62.059 C 154.501 62.797,153.975 63.423,153.700 63.450 C 153.425 63.477,153.020 63.523,152.800 63.550 C 152.580 63.578,152.400 64.408,152.400 65.397 C 152.400 66.760,152.207 67.314,151.600 67.693 C 151.160 67.968,150.800 68.403,150.800 68.661 C 150.800 68.918,150.265 69.579,149.612 70.129 C 148.958 70.678,148.089 71.729,147.680 72.464 C 147.203 73.322,146.585 73.842,145.951 73.919 C 145.080 74.023,144.984 74.197,145.126 75.413 C 145.264 76.600,145.122 76.882,144.086 77.477 C 143.104 78.040,142.849 78.491,142.684 79.950 C 142.558 81.071,142.188 81.969,141.688 82.367 C 141.251 82.715,140.671 83.720,140.400 84.600 C 140.129 85.480,139.504 86.589,139.011 87.063 C 138.517 87.538,138.001 88.633,137.863 89.496 C 137.725 90.359,137.249 91.393,136.806 91.795 C 136.363 92.196,136.000 92.724,136.000 92.969 C 136.000 93.579,132.364 97.425,131.500 97.729 C 131.015 97.899,130.800 98.402,130.800 99.367 C 130.800 100.488,130.527 100.967,129.400 101.827 C 128.214 102.732,128.000 103.138,128.000 104.485 C 128.000 105.688,127.822 106.121,127.270 106.266 C 126.869 106.371,126.313 107.084,126.036 107.851 C 125.746 108.654,125.136 109.396,124.600 109.600 C 123.652 109.960,122.963 111.292,123.377 111.963 C 123.503 112.166,123.149 112.874,122.592 113.536 C 122.035 114.198,121.371 115.339,121.116 116.070 C 120.861 116.802,120.236 117.728,119.726 118.129 C 119.217 118.530,118.794 119.250,118.787 119.729 C 118.773 120.726,117.923 122.000,117.272 122.000 C 117.030 122.000,116.613 122.765,116.345 123.700 C 116.077 124.635,115.412 125.774,114.867 126.232 C 113.965 126.989,113.731 127.648,113.633 129.703 C 113.615 130.089,113.167 130.782,112.637 131.243 C 112.107 131.703,111.552 132.731,111.403 133.526 C 111.253 134.322,110.652 135.549,110.066 136.253 C 109.480 136.958,108.682 137.992,108.293 138.552 C 107.866 139.166,107.351 139.479,106.993 139.342 C 106.535 139.166,106.400 139.450,106.400 140.584 C 106.400 142.474,105.807 143.575,104.905 143.359 C 103.725 143.076,103.045 143.764,103.559 144.723 C 104.562 146.598,103.657 149.614,102.253 149.076 C 101.710 148.867,101.636 149.003,101.842 149.827 C 102.209 151.287,101.223 154.469,100.333 154.702 C 99.930 154.807,99.594 155.187,99.586 155.547 C 99.569 156.374,98.137 159.434,97.830 159.300 C 97.095 158.980,96.800 159.360,96.800 160.626 C 96.800 162.458,96.180 163.600,95.186 163.600 C 94.537 163.600,94.400 163.876,94.400 165.181 C 94.400 167.040,93.691 168.800,92.943 168.800 C 92.653 168.800,92.311 169.295,92.184 169.900 C 91.809 171.683,91.398 172.168,90.025 172.448 C 89.310 172.595,88.518 172.940,88.263 173.216 C 87.909 173.599,87.918 173.651,88.298 173.436 C 88.609 173.261,88.971 173.538,89.259 174.169 C 89.919 175.619,89.252 177.760,88.087 177.928 C 87.352 178.034,87.200 178.312,87.200 179.555 C 87.200 181.241,86.128 185.200,85.672 185.200 C 85.508 185.200,85.338 185.641,85.293 186.179 C 85.249 186.718,84.831 188.113,84.364 189.279 C 81.199 197.190,78.123 205.726,77.762 207.600 C 77.656 208.150,77.113 209.546,76.554 210.703 C 75.995 211.859,75.286 214.366,74.977 216.273 C 74.668 218.180,74.202 220.383,73.940 221.170 C 73.665 221.995,73.441 225.224,73.410 228.800 C 73.357 235.018,73.111 236.591,72.258 236.168 C 72.006 236.043,72.149 236.224,72.576 236.570 C 73.300 237.157,73.626 242.988,72.992 244.013 C 72.901 244.161,72.640 246.333,72.414 248.841 C 71.780 255.843,71.608 256.699,70.999 255.866 C 70.549 255.251,70.469 255.245,70.252 255.809 C 70.118 256.157,70.168 256.343,70.363 256.223 C 70.790 255.959,71.151 256.804,70.908 257.500 C 70.812 257.775,70.546 258.000,70.318 258.000 C 70.044 258.000,70.053 257.818,70.345 257.467 C 70.680 257.063,70.643 256.933,70.194 256.933 C 69.867 256.933,69.688 257.022,69.797 257.130 C 69.905 257.238,69.793 257.568,69.548 257.863 C 69.212 258.268,69.237 258.402,69.651 258.406 C 69.982 258.410,70.041 258.529,69.800 258.706 C 69.144 259.188,69.127 260.038,69.748 261.356 C 70.460 262.868,70.440 271.187,69.723 272.053 C 69.143 272.753,69.314 278.573,69.936 279.323 C 70.187 279.626,70.275 279.992,70.130 280.137 C 69.985 280.282,70.177 280.400,70.557 280.400 C 70.993 280.400,71.143 280.216,70.965 279.900 C 70.760 279.536,70.810 279.517,71.151 279.829 C 72.020 280.627,72.424 286.842,72.591 302.000 C 72.694 311.256,73.075 314.800,73.970 314.800 C 74.153 314.800,74.597 315.973,74.957 317.406 C 75.317 318.839,75.984 320.384,76.438 320.838 C 76.892 321.292,77.443 322.178,77.662 322.806 C 77.881 323.433,78.496 324.233,79.030 324.583 C 79.563 324.932,80.000 325.423,80.000 325.673 C 80.000 325.923,80.994 327.134,82.209 328.364 C 84.415 330.598,87.597 335.010,87.599 335.838 C 87.600 336.079,87.975 336.615,88.433 337.030 C 88.891 337.445,89.498 338.327,89.782 338.992 C 90.066 339.656,90.636 340.592,91.049 341.071 C 91.462 341.549,92.430 342.773,93.200 343.790 C 93.970 344.807,95.039 346.192,95.576 346.867 C 96.113 347.543,96.833 348.612,97.176 349.242 C 97.789 350.368,102.947 356.176,105.500 358.615 C 106.215 359.298,106.800 360.061,106.800 360.310 C 106.800 360.559,107.612 361.122,108.605 361.561 C 109.597 362.000,110.510 362.622,110.634 362.943 C 110.757 363.265,111.322 363.644,111.890 363.787 C 112.457 363.929,113.408 364.531,114.001 365.123 C 115.636 366.754,118.597 368.800,119.324 368.800 C 119.678 368.800,120.345 369.205,120.805 369.700 C 121.264 370.195,122.126 370.781,122.720 371.001 C 124.693 371.734,128.412 374.076,128.823 374.843 C 129.046 375.259,129.451 375.600,129.723 375.600 C 129.995 375.600,130.844 376.115,131.609 376.743 C 132.374 377.372,133.389 378.009,133.865 378.159 C 134.341 378.309,135.374 378.944,136.162 379.570 C 136.996 380.232,138.335 380.819,139.365 380.974 C 140.338 381.120,141.338 381.485,141.587 381.784 C 142.195 382.516,145.036 383.106,149.400 383.406 C 154.083 383.727,158.102 384.347,158.580 384.822 C 158.820 385.061,158.783 385.200,158.480 385.200 C 158.216 385.200,158.000 385.470,158.000 385.800 C 158.000 386.792,158.694 386.476,158.975 385.355 C 159.256 384.238,163.171 384.260,167.200 385.401 C 168.422 385.747,170.993 386.092,176.400 386.633 C 177.830 386.776,179.225 386.902,179.500 386.913 C 180.231 386.943,180.113 387.600,179.376 387.600 C 179.007 387.600,178.869 387.788,179.038 388.062 C 179.216 388.350,179.148 388.415,178.855 388.234 C 178.598 388.075,178.489 387.779,178.614 387.577 C 178.739 387.375,178.558 387.318,178.211 387.451 C 177.703 387.646,177.675 387.809,178.069 388.283 C 178.489 388.789,178.322 388.856,176.896 388.753 C 175.982 388.687,175.106 388.760,174.950 388.916 C 174.794 389.072,175.856 389.200,177.310 389.200 C 179.776 389.200,181.056 388.737,179.902 388.261 C 179.626 388.147,179.940 388.123,180.600 388.208 C 184.388 388.693,202.671 388.769,203.139 388.301 C 203.490 387.951,205.349 387.788,209.320 387.761 C 214.790 387.724,218.943 387.406,219.647 386.971 C 219.832 386.856,220.369 386.969,220.840 387.221 C 221.436 387.540,221.614 387.546,221.425 387.240 C 221.275 386.998,221.208 386.787,221.276 386.772 C 221.344 386.757,222.930 386.668,224.800 386.575 C 226.670 386.482,230.900 386.227,234.200 386.009 C 237.500 385.791,241.820 385.507,243.800 385.379 C 246.164 385.226,247.978 384.871,249.085 384.345 C 250.011 383.904,251.881 383.387,253.239 383.194 C 255.031 382.941,256.002 382.565,256.776 381.823 C 257.363 381.260,258.158 380.800,258.542 380.800 C 259.383 380.800,261.474 379.762,261.664 379.251 C 261.792 378.905,262.342 378.531,265.560 376.600 C 266.293 376.160,267.609 375.215,268.484 374.500 C 269.359 373.785,270.412 373.200,270.824 373.200 C 271.235 373.200,271.761 372.846,271.992 372.414 C 272.224 371.982,273.175 371.403,274.107 371.127 C 275.038 370.851,276.128 370.215,276.529 369.713 C 276.930 369.211,277.614 368.800,278.048 368.800 C 278.483 368.800,279.235 368.380,279.719 367.866 C 280.204 367.352,280.906 366.765,281.281 366.561 C 282.725 365.774,291.191 357.861,291.209 357.281 C 291.214 357.126,293.932 354.210,297.248 350.800 C 300.565 347.390,303.444 344.178,303.644 343.661 C 303.845 343.145,304.381 342.625,304.836 342.507 C 305.290 342.388,305.830 341.848,306.036 341.307 C 306.241 340.765,306.767 340.229,307.205 340.115 C 307.709 339.983,308.000 339.568,308.000 338.982 C 308.000 338.474,308.435 337.716,308.966 337.299 C 309.497 336.881,310.220 335.847,310.574 335.002 C 310.927 334.156,311.572 333.215,312.008 332.909 C 312.444 332.604,312.800 331.913,312.800 331.374 C 312.800 330.829,313.334 329.834,314.000 329.137 C 314.730 328.373,315.200 327.456,315.200 326.796 C 315.200 326.200,315.675 325.012,316.256 324.156 C 316.836 323.301,317.490 322.061,317.708 321.400 C 317.927 320.740,318.532 319.788,319.053 319.284 C 319.583 318.771,320.004 317.890,320.009 317.284 C 320.021 315.791,321.177 314.425,322.522 314.314 C 323.443 314.238,323.537 314.143,323.045 313.783 C 322.210 313.173,322.749 304.182,324.087 296.400 C 324.624 293.271,324.578 276.682,324.020 272.407 C 323.804 270.753,323.604 266.790,323.575 263.600 C 323.505 255.702,323.535 255.113,324.000 255.400 C 324.220 255.536,324.400 255.457,324.400 255.224 C 324.400 254.991,324.651 254.800,324.957 254.800 C 325.264 254.800,325.624 254.515,325.757 254.167 C 326.101 253.272,326.074 253.200,325.390 253.200 C 323.638 253.200,323.315 243.675,325.000 241.673 C 325.960 240.533,326.375 239.321,325.654 239.767 C 325.289 239.992,325.429 237.801,325.819 237.169 C 325.945 236.966,325.812 236.797,325.524 236.794 C 325.139 236.789,325.159 236.675,325.600 236.363 C 326.054 236.042,326.078 235.890,325.698 235.735 C 325.421 235.623,325.314 235.339,325.459 235.104 C 325.617 234.849,325.534 234.793,325.255 234.966 C 324.998 235.125,324.891 235.423,325.017 235.628 C 325.144 235.832,325.100 236.000,324.920 236.000 C 324.286 236.000,323.553 234.319,323.381 232.469 C 323.285 231.441,323.109 229.700,322.989 228.600 C 322.870 227.500,322.666 223.585,322.535 219.900 C 322.359 214.931,322.168 213.200,321.797 213.200 C 321.257 213.200,320.681 211.956,320.017 209.352 C 319.786 208.446,319.263 207.276,318.854 206.752 C 318.445 206.228,317.971 205.350,317.801 204.800 C 317.631 204.250,316.991 203.080,316.379 202.200 C 315.685 201.204,315.163 199.808,314.995 198.500 C 314.846 197.345,314.581 196.400,314.406 196.400 C 313.852 196.400,312.800 193.250,312.800 191.592 C 312.800 190.277,312.663 190.000,312.015 190.000 C 311.136 190.000,310.502 188.224,310.339 185.300 C 310.269 184.046,310.075 183.600,309.602 183.600 C 308.891 183.600,308.000 181.541,308.000 179.899 C 308.000 179.200,307.611 178.578,306.824 178.017 C 306.177 177.556,305.526 176.779,305.378 176.290 C 305.229 175.800,304.789 175.040,304.400 174.600 C 303.541 173.629,303.277 172.755,303.136 170.400 C 303.050 168.977,302.857 168.555,302.214 168.387 C 301.648 168.239,301.285 167.661,301.023 166.487 C 300.816 165.559,300.514 164.800,300.352 164.800 C 299.674 164.800,298.767 163.422,298.347 161.756 C 298.100 160.776,297.580 159.803,297.191 159.595 C 296.795 159.383,296.274 158.344,296.008 157.232 C 295.692 155.915,295.206 155.034,294.566 154.614 C 293.922 154.192,293.600 153.605,293.600 152.850 C 293.600 152.152,293.164 151.262,292.460 150.526 C 291.634 149.661,291.244 148.754,291.041 147.224 C 290.829 145.625,290.577 145.067,289.998 144.915 C 289.578 144.805,289.036 144.116,288.794 143.383 C 288.552 142.650,288.003 141.603,287.573 141.056 C 287.143 140.510,286.610 139.103,286.389 137.931 C 286.161 136.723,285.663 135.540,285.239 135.200 C 284.829 134.870,284.288 133.956,284.038 133.169 C 283.788 132.382,283.047 131.342,282.392 130.857 C 281.736 130.373,281.200 129.654,281.200 129.260 C 281.200 128.866,280.750 128.153,280.200 127.675 C 279.650 127.197,279.200 126.525,279.200 126.183 C 279.200 125.840,278.570 124.912,277.800 124.119 C 277.007 123.303,276.400 122.270,276.400 121.739 C 276.400 121.087,276.170 120.800,275.649 120.800 C 275.174 120.800,274.705 120.320,274.376 119.500 C 274.089 118.785,273.347 117.609,272.727 116.886 C 272.107 116.163,271.600 115.111,271.600 114.547 C 271.600 113.923,271.130 113.082,270.400 112.400 C 269.215 111.293,268.730 109.138,269.552 108.630 C 270.458 108.069,270.293 106.931,269.331 107.115 C 268.040 107.362,266.800 106.179,266.800 104.701 C 266.800 103.899,266.568 103.464,266.069 103.334 C 265.668 103.229,265.015 102.595,264.620 101.926 C 264.224 101.256,263.482 100.344,262.970 99.899 C 262.458 99.454,261.928 98.583,261.792 97.963 C 261.656 97.343,261.197 96.726,260.773 96.591 C 260.246 96.424,259.919 95.833,259.743 94.731 C 259.601 93.843,259.069 92.668,258.561 92.120 C 258.036 91.554,257.521 90.350,257.369 89.330 C 257.203 88.225,256.850 87.442,256.450 87.291 C 255.295 86.854,254.800 86.086,254.797 84.729 C 254.795 83.665,254.550 83.260,253.567 82.701 C 252.458 82.070,252.350 81.837,252.459 80.301 C 252.568 78.773,252.492 78.605,251.710 78.646 C 250.882 78.690,249.600 76.858,249.600 75.631 C 249.600 75.385,249.150 74.978,248.600 74.727 C 247.506 74.229,247.398 73.782,247.994 72.215 C 248.357 71.261,248.292 71.158,247.175 70.935 C 246.307 70.761,245.748 70.280,245.214 69.246 C 244.803 68.451,244.103 67.580,243.658 67.312 C 242.967 66.895,242.904 66.633,243.225 65.515 C 243.788 63.549,243.706 63.333,242.393 63.333 C 241.111 63.333,240.035 62.319,240.013 61.090 C 240.006 60.700,239.531 60.202,238.957 59.984 C 238.061 59.643,237.936 59.395,238.073 58.222 C 238.161 57.471,238.127 56.922,237.997 57.002 C 237.503 57.307,236.600 56.388,236.185 55.156 C 235.887 54.272,235.455 53.827,234.794 53.726 C 233.376 53.510,232.279 50.000,233.629 50.000 C 234.484 50.000,233.774 48.599,232.895 48.550 C 231.351 48.464,231.260 48.419,231.003 47.611 C 230.866 47.176,230.274 46.591,229.688 46.311 C 229.103 46.030,228.403 45.358,228.133 44.817 C 227.864 44.276,227.270 43.696,226.814 43.527 C 226.332 43.348,225.886 42.728,225.749 42.045 C 225.611 41.354,225.200 40.789,224.752 40.671 C 224.332 40.562,223.737 39.871,223.430 39.136 C 223.122 38.401,222.404 37.364,221.835 36.830 C 221.266 36.297,220.800 35.634,220.800 35.358 C 220.800 35.081,220.280 34.484,219.644 34.032 C 219.009 33.579,218.377 32.762,218.240 32.216 C 218.103 31.670,217.633 31.032,217.195 30.797 C 216.758 30.563,216.400 30.172,216.400 29.927 C 216.400 29.683,215.770 28.714,215.000 27.774 C 214.230 26.834,213.600 25.888,213.600 25.671 C 213.600 25.312,212.208 23.430,209.999 20.800 C 209.537 20.250,209.005 19.547,208.817 19.237 C 208.353 18.474,206.482 16.269,204.900 14.621 C 204.185 13.876,203.600 13.145,203.600 12.997 C 203.600 12.849,203.005 12.032,202.278 11.182 C 201.550 10.332,200.695 9.136,200.378 8.524 C 200.060 7.912,199.542 7.102,199.226 6.723 C 198.506 5.860,198.297 5.047,198.243 2.900 C 198.219 1.965,198.177 1.200,198.149 1.200 C 198.121 1.200,197.867 1.479,197.584 1.819 M105.351 211.803 C 108.629 212.756,110.237 214.344,111.140 217.520 C 112.095 220.877,113.909 228.586,114.229 230.647 C 114.362 231.501,114.704 232.740,114.989 233.400 C 115.274 234.060,115.815 235.680,116.191 237.000 C 116.567 238.320,117.108 239.940,117.393 240.600 C 117.679 241.260,118.313 242.970,118.804 244.400 C 119.294 245.830,119.936 247.551,120.230 248.223 C 121.359 250.806,121.566 253.935,120.682 255.059 C 120.017 255.905,119.976 256.139,120.440 256.433 C 120.748 256.628,120.820 256.793,120.600 256.800 C 120.380 256.807,120.470 256.987,120.800 257.200 C 121.305 257.526,121.281 257.589,120.651 257.594 C 120.065 257.599,120.000 257.718,120.354 258.144 C 120.610 258.454,121.235 258.606,121.803 258.497 C 122.351 258.393,122.814 258.463,122.831 258.653 C 122.897 259.409,123.144 260.418,123.598 261.793 C 123.859 262.585,123.972 263.496,123.849 263.816 C 123.726 264.137,123.810 264.400,124.036 264.400 C 124.262 264.400,124.348 264.561,124.226 264.758 C 124.104 264.955,124.274 265.219,124.602 265.346 C 124.931 265.472,125.200 265.820,125.200 266.120 C 125.200 267.038,126.856 272.000,127.162 272.000 C 127.320 272.000,127.776 273.438,128.175 275.197 C 128.574 276.955,129.238 278.782,129.650 279.258 C 130.063 279.733,130.400 280.249,130.400 280.405 C 130.400 280.560,131.265 281.618,132.322 282.755 C 134.723 285.340,136.046 287.948,139.389 296.691 C 140.165 298.722,140.800 300.704,140.800 301.097 C 140.800 301.490,141.133 302.439,141.540 303.206 C 141.948 303.973,142.592 305.545,142.973 306.700 C 143.353 307.855,143.791 308.800,143.946 308.800 C 144.101 308.800,144.566 309.372,144.979 310.072 C 145.392 310.771,146.196 311.860,146.765 312.493 C 147.334 313.125,148.340 314.275,149.000 315.047 C 149.660 315.820,150.695 317.007,151.300 317.685 C 151.905 318.364,152.400 319.130,152.400 319.387 C 152.400 319.645,152.940 320.461,153.600 321.200 C 154.260 321.939,154.800 322.659,154.800 322.799 C 154.800 322.940,155.430 323.762,156.200 324.627 C 156.970 325.492,157.600 326.425,157.600 326.700 C 157.600 326.975,157.787 327.200,158.016 327.200 C 158.245 327.200,159.108 327.875,159.935 328.700 C 160.762 329.525,162.534 331.169,163.873 332.352 C 166.512 334.685,167.858 337.091,169.769 342.890 C 171.043 346.756,172.012 348.580,173.352 349.634 C 173.928 350.087,174.400 350.721,174.400 351.042 C 174.400 351.363,174.669 351.728,174.998 351.854 C 175.326 351.981,175.496 352.245,175.374 352.442 C 175.252 352.639,175.347 352.800,175.584 352.800 C 175.851 352.800,175.914 353.204,175.749 353.860 C 175.562 354.605,175.619 354.835,175.942 354.636 C 176.231 354.457,176.400 354.665,176.400 355.200 C 176.400 355.666,176.220 355.936,176.000 355.800 C 175.640 355.578,175.427 356.103,175.553 356.900 C 175.579 357.065,175.330 357.200,175.000 357.200 C 174.670 357.200,174.400 357.359,174.400 357.553 C 174.400 357.964,173.150 358.416,171.300 358.673 C 170.532 358.780,170.000 358.679,170.000 358.427 C 170.000 358.192,169.649 358.000,169.220 358.000 C 168.791 358.000,168.291 357.735,168.110 357.411 C 167.929 357.087,167.425 356.767,166.990 356.699 C 166.556 356.630,165.806 356.235,165.325 355.820 C 164.158 354.813,160.374 353.241,158.835 353.124 C 158.156 353.072,157.600 352.873,157.600 352.682 C 157.600 352.490,157.378 352.407,157.108 352.497 C 155.643 352.986,151.375 350.782,149.400 348.518 C 148.300 347.257,145.438 344.329,143.040 342.012 C 134.041 333.319,129.649 328.935,127.800 326.800 C 126.752 325.590,124.871 323.520,123.620 322.200 C 122.369 320.880,120.498 318.753,119.464 317.474 C 118.430 316.195,117.410 314.935,117.198 314.674 C 115.504 312.592,114.710 311.366,113.132 308.400 C 112.137 306.530,110.826 303.740,110.218 302.200 C 108.768 298.530,106.550 293.454,105.411 291.200 C 104.911 290.210,104.377 288.872,104.225 288.227 C 104.073 287.582,103.510 286.533,102.974 285.896 C 102.438 285.260,102.000 284.578,102.000 284.381 C 102.000 284.184,101.452 283.246,100.783 282.296 C 99.424 280.368,99.065 278.429,99.944 277.761 C 100.361 277.444,100.393 277.243,100.061 277.037 C 99.807 276.881,99.600 276.905,99.600 277.091 C 99.600 278.576,98.012 277.333,97.788 275.674 C 97.649 274.643,97.366 273.245,97.158 272.566 C 96.323 269.829,96.353 265.937,97.212 265.713 C 98.385 265.406,98.164 264.800,96.880 264.800 L 95.760 264.800 95.280 260.300 C 95.016 257.825,94.704 253.280,94.586 250.200 C 94.469 247.120,94.208 243.160,94.007 241.400 C 93.805 239.640,93.631 237.930,93.619 237.600 C 93.608 237.270,93.423 235.740,93.209 234.200 C 91.975 225.337,95.439 212.060,99.000 212.001 C 99.440 211.994,100.070 211.813,100.400 211.600 C 101.264 211.042,102.973 211.112,105.351 211.803 M66.920 266.400 C 66.920 267.610,66.995 268.105,67.087 267.500 C 67.178 266.895,67.178 265.905,67.087 265.300 C 66.995 264.695,66.920 265.190,66.920 266.400 M69.200 280.624 C 69.200 281.187,69.363 281.546,69.562 281.423 C 69.762 281.300,69.831 280.839,69.716 280.400 C 69.428 279.299,69.200 279.398,69.200 280.624 M136.914 301.000 C 136.917 302.100,136.995 302.503,137.087 301.895 C 137.179 301.286,137.177 300.386,137.082 299.895 C 136.987 299.403,136.911 299.900,136.914 301.000 M228.100 389.076 C 228.485 389.176,229.115 389.176,229.500 389.076 C 229.885 388.975,229.570 388.893,228.800 388.893 C 228.030 388.893,227.715 388.975,228.100 389.076 " stroke="none" fill="#fcfbfb" fill-rule="evenodd"></path><path id="path1" d="M193.448 1.485 C 193.312 1.622,193.200 2.142,193.200 2.641 C 193.200 3.373,192.948 3.574,191.902 3.675 C 190.810 3.780,190.571 3.991,190.397 5.000 C 190.277 5.695,189.940 6.204,189.595 6.211 C 188.364 6.232,188.000 6.863,188.000 8.979 C 188.000 10.428,187.840 11.105,187.500 11.093 C 185.882 11.032,185.600 11.230,185.600 12.425 C 185.600 13.352,185.430 13.633,184.900 13.579 C 183.305 13.417,183.200 13.567,183.200 16.024 C 183.200 17.357,183.065 18.368,182.900 18.271 C 182.157 17.833,180.800 18.813,180.800 19.787 C 180.800 20.724,180.230 21.027,178.767 20.870 C 178.507 20.842,178.487 20.987,178.376 23.700 C 178.302 25.508,178.243 25.600,177.149 25.600 C 176.026 25.600,175.834 25.878,175.979 27.300 C 176.043 27.927,175.155 28.246,173.900 28.047 C 173.613 28.002,173.563 28.364,173.450 31.300 C 173.409 32.366,173.220 32.625,172.400 32.740 C 171.240 32.903,170.814 33.433,171.013 34.466 C 171.115 34.997,170.911 35.202,170.277 35.206 C 168.913 35.216,168.611 35.647,168.459 37.800 C 168.294 40.143,168.342 40.065,167.026 40.141 C 166.198 40.189,166.001 40.404,166.000 41.261 C 166.000 42.069,165.727 42.417,164.851 42.722 C 163.899 43.054,163.700 43.352,163.690 44.461 C 163.663 47.476,163.656 47.496,162.599 47.380 C 161.586 47.269,161.267 47.782,161.097 49.800 C 161.060 50.240,160.708 50.915,160.315 51.300 C 159.509 52.089,159.328 51.665,160.100 50.799 C 160.525 50.322,160.496 50.318,159.900 50.768 C 158.992 51.456,159.016 51.873,159.994 52.397 C 160.631 52.738,160.927 52.661,161.483 52.011 C 161.865 51.565,162.485 51.200,162.860 51.200 C 163.902 51.200,164.800 50.076,164.800 48.771 C 164.800 47.879,164.985 47.600,165.576 47.600 C 166.168 47.600,166.431 47.203,166.683 45.929 C 166.933 44.667,167.306 44.096,168.207 43.599 C 169.491 42.890,170.007 41.172,169.220 40.224 C 168.872 39.805,169.022 39.717,169.947 39.795 C 170.923 39.878,171.249 39.650,171.958 38.389 C 172.423 37.561,173.057 36.787,173.367 36.668 C 173.676 36.549,174.161 35.811,174.444 35.028 C 174.728 34.244,175.271 33.504,175.652 33.384 C 176.033 33.263,176.461 32.634,176.603 31.987 C 176.745 31.340,177.387 30.436,178.031 29.978 C 178.674 29.520,179.200 28.928,179.200 28.662 C 179.200 28.396,179.727 27.602,180.371 26.897 C 181.015 26.192,181.670 25.206,181.826 24.707 C 181.983 24.208,182.529 23.410,183.039 22.934 C 183.550 22.458,184.095 21.558,184.251 20.934 C 184.407 20.310,184.999 19.339,185.567 18.776 C 187.433 16.924,190.985 12.746,191.785 11.461 C 192.216 10.767,192.680 10.110,192.815 10.000 C 193.107 9.762,194.079 7.943,194.953 6.000 C 195.299 5.230,195.592 4.780,195.605 5.000 C 195.618 5.220,195.873 4.958,196.173 4.417 C 196.472 3.876,196.642 2.976,196.550 2.417 C 196.435 1.720,196.496 1.571,196.741 1.943 C 197.043 2.400,197.154 2.400,197.444 1.943 C 197.684 1.566,197.872 1.889,198.061 3.000 C 198.510 5.632,198.626 6.004,199.226 6.723 C 199.542 7.102,200.060 7.912,200.378 8.524 C 200.695 9.136,201.550 10.332,202.278 11.182 C 203.005 12.032,203.600 12.849,203.600 12.997 C 203.600 13.145,204.185 13.876,204.900 14.621 C 206.482 16.269,208.353 18.474,208.817 19.237 C 209.005 19.547,209.537 20.250,209.999 20.800 C 212.208 23.430,213.600 25.312,213.600 25.671 C 213.600 25.888,214.230 26.834,215.000 27.774 C 215.770 28.714,216.400 29.683,216.400 29.927 C 216.400 30.172,216.758 30.563,217.195 30.797 C 217.633 31.032,218.103 31.670,218.240 32.216 C 218.377 32.762,219.009 33.579,219.644 34.032 C 220.280 34.484,220.800 35.081,220.800 35.358 C 220.800 35.634,221.266 36.297,221.835 36.830 C 222.404 37.364,223.122 38.401,223.430 39.136 C 223.737 39.871,224.332 40.562,224.752 40.671 C 225.200 40.789,225.611 41.354,225.749 42.045 C 225.886 42.728,226.332 43.348,226.814 43.527 C 227.270 43.696,227.864 44.276,228.133 44.817 C 228.403 45.358,229.103 46.030,229.688 46.311 C 230.274 46.591,230.866 47.176,231.003 47.611 C 231.141 48.045,231.377 48.418,231.527 48.440 C 233.865 48.779,234.050 48.703,233.945 47.439 C 233.834 46.089,232.902 44.690,232.343 45.035 C 231.953 45.276,231.191 43.575,231.473 43.095 C 231.572 42.928,231.135 42.687,230.501 42.560 C 229.704 42.401,229.213 41.970,228.909 41.165 C 228.617 40.391,228.189 40.000,227.635 40.000 C 226.904 40.000,226.800 39.760,226.800 38.080 C 226.800 36.077,226.304 35.200,225.170 35.200 C 224.746 35.200,224.412 34.760,224.260 34.000 C 224.069 33.047,223.812 32.800,223.010 32.800 C 222.147 32.800,221.993 32.611,221.954 31.500 C 221.928 30.785,221.866 30.020,221.815 29.800 C 221.764 29.580,221.694 29.085,221.661 28.700 C 221.618 28.202,221.253 28.000,220.400 28.000 C 219.333 28.000,219.200 27.867,219.200 26.800 C 219.200 25.733,219.067 25.600,218.000 25.600 C 216.811 25.600,216.800 25.579,216.800 23.390 C 216.800 21.254,216.760 21.172,215.600 20.940 C 214.601 20.740,214.400 20.508,214.400 19.550 C 214.400 18.539,214.255 18.400,213.200 18.400 C 212.133 18.400,212.000 18.267,212.000 17.200 C 212.000 16.025,211.733 15.833,210.300 15.979 C 209.704 16.040,209.600 15.697,209.600 13.668 C 209.600 11.211,209.139 10.542,207.800 11.055 C 207.346 11.230,207.200 10.983,207.200 10.043 C 207.200 9.227,206.994 8.783,206.600 8.750 C 206.270 8.723,205.786 8.678,205.525 8.650 C 205.264 8.623,204.899 8.015,204.714 7.300 C 204.448 6.275,204.168 6.000,203.389 6.000 C 202.434 6.000,202.042 4.375,202.361 1.740 C 202.420 1.251,193.926 1.007,193.448 1.485 M233.700 49.861 C 232.405 50.393,233.283 53.496,234.794 53.726 C 235.455 53.827,235.887 54.272,236.185 55.156 C 236.600 56.388,237.503 57.307,237.997 57.002 C 238.127 56.922,238.161 57.471,238.073 58.222 C 237.936 59.395,238.061 59.643,238.957 59.984 C 239.531 60.202,240.006 60.700,240.013 61.090 C 240.040 62.600,242.000 63.959,243.128 63.250 C 244.193 62.581,243.554 59.818,242.300 59.673 C 241.279 59.556,240.932 58.898,241.153 57.500 C 241.201 57.193,240.591 57.055,239.702 57.170 C 239.428 57.205,238.809 56.867,238.326 56.417 C 237.556 55.700,237.536 55.600,238.156 55.600 C 238.745 55.600,238.816 55.383,238.582 54.300 C 238.295 52.977,237.797 52.417,236.900 52.406 C 236.625 52.403,236.397 51.995,236.394 51.500 C 236.384 49.985,235.180 49.253,233.700 49.861 M154.000 58.400 C 154.000 59.446,153.857 59.600,152.887 59.600 C 151.979 59.600,151.759 59.790,151.689 60.636 C 151.579 61.961,151.240 62.501,150.657 62.277 C 149.900 61.987,149.407 62.889,149.291 64.775 C 149.164 66.861,149.221 66.774,147.896 66.884 C 147.324 66.931,146.865 67.067,146.876 67.185 C 147.004 68.633,146.709 69.157,145.700 69.273 C 144.659 69.393,144.594 69.523,144.480 71.700 C 144.363 73.953,144.336 74.000,143.180 74.000 C 142.156 74.000,142.000 74.147,142.000 75.112 C 142.000 75.976,141.737 76.324,140.822 76.669 C 139.750 77.074,139.634 77.302,139.522 79.225 C 139.414 81.089,139.294 81.345,138.500 81.402 C 137.247 81.492,137.133 81.688,137.133 83.770 C 137.133 85.477,136.191 86.858,135.499 86.166 C 135.147 85.814,134.541 88.130,134.626 89.500 C 134.701 90.713,134.489 90.921,133.336 90.764 C 133.056 90.726,132.383 91.771,132.351 92.292 C 132.309 92.969,131.452 93.600,130.574 93.600 C 129.889 93.600,129.683 93.792,129.787 94.334 C 129.983 95.351,129.484 96.028,128.481 96.104 C 128.015 96.139,127.715 96.248,127.814 96.347 C 127.912 96.446,127.791 96.769,127.545 97.067 C 127.289 97.374,127.195 98.217,127.326 99.024 C 127.557 100.443,126.479 101.509,125.438 100.891 C 125.239 100.773,125.205 100.884,125.362 101.138 C 125.519 101.392,125.459 101.600,125.228 101.600 C 124.998 101.600,124.836 101.915,124.868 102.300 C 125.075 104.766,124.805 105.546,123.700 105.673 C 122.836 105.773,122.573 106.036,122.473 106.900 C 122.398 107.557,122.104 108.000,121.745 108.000 C 120.746 108.000,120.206 108.904,120.084 110.782 C 119.948 112.878,120.016 112.775,118.696 112.884 C 118.124 112.931,117.665 113.067,117.676 113.185 C 117.892 115.628,117.523 117.600,116.849 117.600 C 115.982 117.600,115.354 118.257,115.128 119.400 C 115.037 119.858,114.677 120.176,114.285 120.144 C 113.908 120.114,113.600 120.260,113.600 120.468 C 113.600 120.677,113.465 120.764,113.299 120.661 C 113.133 120.559,112.942 121.400,112.873 122.530 C 112.725 124.973,112.734 124.962,110.700 125.169 C 110.535 125.186,110.421 125.335,110.447 125.500 C 110.689 127.028,110.322 130.025,109.900 129.970 C 108.916 129.842,108.001 130.005,108.047 130.300 C 108.304 131.925,107.927 134.857,107.483 134.687 C 106.294 134.231,105.514 135.466,105.660 137.574 L 105.800 139.600 104.500 139.600 C 103.211 139.600,103.200 139.616,103.200 141.553 C 103.200 143.493,103.209 143.506,104.442 143.409 C 105.951 143.291,106.386 142.678,106.394 140.657 C 106.399 139.460,106.533 139.165,106.993 139.342 C 107.351 139.479,107.866 139.166,108.293 138.552 C 108.682 137.992,109.480 136.958,110.066 136.253 C 110.652 135.549,111.253 134.322,111.403 133.526 C 111.552 132.731,112.107 131.703,112.637 131.243 C 113.167 130.782,113.615 130.089,113.633 129.703 C 113.731 127.648,113.965 126.989,114.867 126.232 C 115.412 125.774,116.077 124.635,116.345 123.700 C 116.613 122.765,117.030 122.000,117.272 122.000 C 117.923 122.000,118.773 120.726,118.787 119.729 C 118.794 119.250,119.217 118.530,119.726 118.129 C 120.236 117.728,120.861 116.802,121.116 116.070 C 121.371 115.339,122.035 114.198,122.592 113.536 C 123.149 112.874,123.503 112.166,123.377 111.963 C 122.963 111.292,123.652 109.960,124.600 109.600 C 125.136 109.396,125.746 108.654,126.036 107.851 C 126.313 107.084,126.869 106.371,127.270 106.266 C 127.822 106.121,128.000 105.688,128.000 104.485 C 128.000 103.138,128.214 102.732,129.400 101.827 C 130.527 100.967,130.800 100.488,130.800 99.367 C 130.800 98.402,131.015 97.899,131.500 97.729 C 132.364 97.425,136.000 93.579,136.000 92.969 C 136.000 92.724,136.363 92.196,136.806 91.795 C 137.249 91.393,137.725 90.359,137.863 89.496 C 138.001 88.633,138.517 87.538,139.011 87.063 C 139.504 86.589,140.129 85.480,140.400 84.600 C 140.671 83.720,141.251 82.715,141.688 82.367 C 142.188 81.969,142.558 81.071,142.684 79.950 C 142.849 78.491,143.104 78.040,144.086 77.477 C 145.122 76.882,145.264 76.600,145.126 75.413 C 144.984 74.197,145.080 74.023,145.951 73.919 C 146.585 73.842,147.203 73.322,147.680 72.464 C 148.089 71.729,148.958 70.678,149.612 70.129 C 150.265 69.579,150.800 68.918,150.800 68.661 C 150.800 68.403,151.160 67.968,151.600 67.693 C 152.207 67.314,152.400 66.760,152.400 65.397 C 152.400 64.408,152.580 63.578,152.800 63.550 C 153.020 63.523,153.425 63.477,153.700 63.450 C 153.975 63.423,154.501 62.797,154.870 62.059 C 155.238 61.321,155.915 60.455,156.374 60.133 C 157.908 59.059,157.363 57.200,155.515 57.200 C 154.098 57.200,154.000 57.278,154.000 58.400 M243.387 65.000 C 243.284 65.330,243.115 65.872,243.011 66.204 C 242.907 66.536,243.192 67.031,243.644 67.304 C 244.097 67.577,244.815 68.475,245.241 69.300 C 245.668 70.125,246.268 70.800,246.575 70.800 C 246.883 70.800,247.419 70.909,247.767 71.043 C 248.298 71.246,248.400 70.924,248.400 69.043 C 248.400 66.817,248.391 66.800,247.200 66.800 C 246.133 66.800,246.000 66.667,246.000 65.600 C 246.000 64.254,243.780 63.744,243.387 65.000 M247.852 72.500 C 247.458 73.971,247.551 74.249,248.600 74.727 C 249.150 74.978,249.600 75.385,249.600 75.631 C 249.600 76.858,250.882 78.690,251.710 78.646 C 252.492 78.605,252.568 78.773,252.459 80.301 C 252.350 81.837,252.458 82.070,253.567 82.701 C 254.550 83.260,254.795 83.665,254.797 84.729 C 254.800 86.086,255.295 86.854,256.450 87.291 C 256.850 87.442,257.203 88.225,257.369 89.330 C 257.521 90.350,258.036 91.554,258.561 92.120 C 259.069 92.668,259.601 93.843,259.743 94.731 C 259.919 95.833,260.246 96.424,260.773 96.591 C 261.197 96.726,261.656 97.343,261.792 97.963 C 261.928 98.583,262.458 99.454,262.970 99.899 C 263.482 100.344,264.224 101.256,264.620 101.926 C 265.015 102.595,265.668 103.229,266.069 103.334 C 266.568 103.464,266.800 103.899,266.800 104.701 C 266.800 106.053,267.870 107.200,269.131 107.200 C 270.018 107.200,270.334 108.146,269.600 108.600 C 268.736 109.134,269.185 111.265,270.400 112.400 C 271.130 113.082,271.600 113.923,271.600 114.547 C 271.600 115.111,272.107 116.163,272.727 116.886 C 273.347 117.609,274.089 118.785,274.376 119.500 C 274.705 120.320,275.174 120.800,275.649 120.800 C 276.170 120.800,276.400 121.087,276.400 121.739 C 276.400 122.270,277.007 123.303,277.800 124.119 C 278.570 124.912,279.200 125.840,279.200 126.183 C 279.200 126.525,279.650 127.197,280.200 127.675 C 280.750 128.153,281.200 128.866,281.200 129.260 C 281.200 129.654,281.736 130.373,282.392 130.857 C 283.047 131.342,283.788 132.382,284.038 133.169 C 284.288 133.956,284.829 134.870,285.239 135.200 C 285.663 135.540,286.161 136.723,286.389 137.931 C 286.610 139.103,287.143 140.510,287.573 141.056 C 288.003 141.603,288.552 142.650,288.794 143.383 C 289.036 144.116,289.578 144.805,289.998 144.915 C 290.577 145.067,290.829 145.625,291.041 147.224 C 291.244 148.754,291.634 149.661,292.460 150.526 C 293.164 151.262,293.600 152.152,293.600 152.850 C 293.600 153.605,293.922 154.192,294.566 154.614 C 295.206 155.034,295.692 155.915,296.008 157.232 C 296.274 158.344,296.795 159.383,297.191 159.595 C 297.580 159.803,298.100 160.776,298.347 161.756 C 298.767 163.422,299.674 164.800,300.352 164.800 C 300.514 164.800,300.816 165.559,301.023 166.487 C 301.285 167.661,301.648 168.239,302.214 168.387 C 302.857 168.555,303.050 168.977,303.136 170.400 C 303.277 172.755,303.541 173.629,304.400 174.600 C 304.789 175.040,305.229 175.800,305.378 176.290 C 305.526 176.779,306.177 177.556,306.824 178.017 C 307.611 178.578,308.000 179.200,308.000 179.899 C 308.000 181.541,308.891 183.600,309.602 183.600 C 310.075 183.600,310.269 184.046,310.339 185.300 C 310.502 188.224,311.136 190.000,312.015 190.000 C 312.663 190.000,312.800 190.277,312.800 191.592 C 312.800 193.250,313.852 196.400,314.406 196.400 C 314.581 196.400,314.846 197.345,314.995 198.500 C 315.163 199.808,315.685 201.204,316.379 202.200 C 316.991 203.080,317.631 204.250,317.801 204.800 C 317.971 205.350,318.445 206.228,318.854 206.752 C 319.263 207.276,319.786 208.446,320.017 209.352 C 320.681 211.956,321.257 213.200,321.797 213.200 C 322.168 213.200,322.361 214.935,322.543 219.900 C 322.918 230.143,323.347 234.214,324.168 235.307 C 324.825 236.183,326.000 235.815,326.000 234.734 C 326.000 234.304,325.821 234.064,325.601 234.199 C 325.340 234.361,325.331 234.109,325.575 233.467 C 325.779 232.928,325.954 227.990,325.963 222.492 L 325.980 212.496 324.790 212.258 L 323.600 212.020 323.600 208.600 L 323.600 205.180 322.419 204.944 C 321.297 204.719,321.231 204.594,321.119 202.454 C 321.007 200.327,320.938 200.193,319.900 200.073 C 318.873 199.955,318.800 199.822,318.800 198.053 C 318.800 196.049,318.300 195.200,317.120 195.200 C 316.515 195.200,316.394 194.833,316.360 192.900 C 316.318 190.493,315.960 188.666,315.571 188.876 C 314.949 189.213,314.000 187.512,314.000 186.061 C 314.000 183.874,313.672 183.200,312.607 183.200 C 311.795 183.200,311.680 182.967,311.517 181.000 C 311.298 178.367,311.260 178.320,309.348 178.320 C 308.160 178.320,307.989 178.238,308.540 177.930 C 309.823 177.212,309.349 173.730,307.930 173.446 C 306.926 173.245,306.794 173.041,306.750 171.610 C 306.723 170.725,306.655 169.820,306.600 169.600 C 306.545 169.380,306.478 169.050,306.450 168.867 C 306.423 168.684,305.995 168.566,305.500 168.606 C 304.381 168.696,303.993 168.139,304.255 166.819 C 304.553 165.324,303.779 163.600,302.810 163.600 C 302.109 163.600,302.000 163.341,302.000 161.680 C 302.000 159.566,301.505 158.800,300.140 158.800 C 299.325 158.800,299.229 158.583,299.120 156.500 C 299.006 154.323,298.941 154.193,297.900 154.073 C 296.838 153.951,296.800 153.865,296.800 151.573 C 296.800 150.268,296.665 149.221,296.500 149.247 C 294.653 149.539,294.400 149.245,294.400 146.800 L 294.400 144.400 293.200 144.400 L 292.000 144.400 292.000 142.000 L 292.000 139.600 290.800 139.600 L 289.600 139.600 289.600 137.200 C 289.600 134.768,289.494 134.617,287.900 134.779 C 287.304 134.840,287.200 134.497,287.200 132.468 C 287.200 130.011,286.739 129.342,285.400 129.855 C 284.937 130.033,284.800 129.766,284.800 128.687 C 284.800 127.825,284.608 127.296,284.300 127.307 C 282.559 127.372,282.441 127.229,282.320 124.900 C 282.243 123.426,282.021 122.582,281.700 122.550 C 281.425 122.522,280.930 122.478,280.600 122.450 C 280.270 122.422,280.000 122.076,280.000 121.680 C 280.000 120.758,279.242 120.000,278.320 120.000 C 277.715 120.000,277.600 119.653,277.600 117.832 C 277.600 115.758,277.549 115.652,276.424 115.405 C 275.527 115.208,275.219 114.892,275.124 114.073 C 275.018 113.158,274.764 112.964,273.400 112.757 C 272.520 112.623,272.025 112.488,272.300 112.457 C 272.828 112.397,272.963 110.451,272.548 108.900 C 272.383 108.286,272.004 108.000,271.353 108.000 C 270.333 108.000,270.291 107.885,270.391 105.334 C 270.461 103.547,269.492 101.196,268.690 101.206 C 268.377 101.210,268.417 101.352,268.800 101.600 C 269.220 101.871,269.246 101.990,268.887 101.994 C 268.296 102.001,268.007 101.386,267.836 99.756 C 267.741 98.843,267.493 98.573,266.658 98.473 C 265.938 98.387,265.600 98.109,265.600 97.602 C 265.600 96.611,264.525 95.577,263.788 95.860 C 263.276 96.056,262.846 92.890,263.300 92.261 C 263.556 91.907,262.281 90.871,261.811 91.051 C 261.107 91.321,260.899 90.914,260.766 89.000 C 260.638 87.159,260.115 85.882,259.616 86.190 C 258.686 86.765,258.000 85.862,257.994 84.057 C 257.987 82.093,257.717 81.425,256.900 81.360 C 256.625 81.338,256.220 81.293,256.000 81.260 C 255.780 81.227,255.600 80.660,255.600 80.000 C 255.600 78.938,255.464 78.800,254.420 78.800 C 253.264 78.800,253.237 78.753,253.120 76.500 C 253.006 74.323,252.941 74.193,251.900 74.073 C 251.051 73.976,250.800 73.734,250.800 73.016 C 250.800 71.436,248.257 70.991,247.852 72.500 M101.067 144.667 C 100.920 144.813,100.800 145.893,100.800 147.067 C 100.800 149.170,100.783 149.200,99.600 149.200 C 98.313 149.200,98.162 149.632,98.373 152.700 C 98.456 153.904,98.372 154.000,97.231 154.000 C 95.911 154.000,95.912 153.999,95.917 156.900 C 95.920 158.577,95.820 158.801,95.060 158.806 C 93.712 158.816,93.400 159.266,93.400 161.200 C 93.400 162.190,93.580 163.132,93.800 163.294 C 94.020 163.456,93.660 163.593,93.000 163.600 C 91.265 163.618,90.957 163.986,90.994 166.000 C 91.028 167.870,90.579 168.958,89.937 168.561 C 89.189 168.099,88.514 169.246,88.514 170.980 C 88.514 172.752,88.518 172.756,89.757 172.522 C 91.322 172.227,92.000 171.701,92.000 170.784 C 92.000 169.678,92.433 168.800,92.979 168.800 C 93.695 168.800,94.400 167.005,94.400 165.181 C 94.400 163.876,94.537 163.600,95.186 163.600 C 96.180 163.600,96.800 162.458,96.800 160.626 C 96.800 159.360,97.095 158.980,97.830 159.300 C 98.137 159.434,99.569 156.374,99.586 155.547 C 99.594 155.187,99.930 154.807,100.333 154.702 C 101.223 154.469,102.209 151.287,101.842 149.827 C 101.636 149.003,101.710 148.867,102.253 149.076 C 103.519 149.561,104.492 146.947,103.757 145.033 C 103.516 144.404,101.591 144.142,101.067 144.667 M86.193 174.184 C 86.094 174.633,85.965 175.713,85.907 176.584 C 85.818 177.905,85.633 178.207,84.800 178.401 C 83.896 178.610,83.788 178.853,83.680 180.916 C 83.570 183.011,83.482 183.200,82.623 183.200 C 81.509 183.200,81.200 183.859,81.200 186.233 C 81.200 187.830,81.108 188.000,80.243 188.000 C 79.011 188.000,78.800 188.619,78.800 192.233 C 78.800 194.823,78.709 195.200,78.080 195.200 C 76.754 195.200,76.400 196.059,76.400 199.280 C 76.400 202.304,76.371 202.400,75.443 202.400 C 74.286 202.400,74.000 203.045,74.000 205.658 C 74.000 207.316,73.883 207.638,73.300 207.579 C 72.178 207.465,71.596 207.578,71.647 207.900 C 71.673 208.065,71.673 210.765,71.647 213.900 L 71.600 219.600 70.379 219.600 L 69.158 219.600 69.231 238.733 C 69.297 256.069,69.365 257.867,69.952 257.873 C 70.308 257.876,70.718 257.698,70.863 257.476 C 71.211 256.941,70.813 255.945,70.363 256.223 C 70.168 256.343,70.118 256.157,70.252 255.809 C 70.469 255.245,70.549 255.251,70.999 255.866 C 71.608 256.699,71.780 255.843,72.414 248.841 C 72.640 246.333,72.901 244.161,72.992 244.013 C 73.626 242.988,73.300 237.157,72.576 236.570 C 72.149 236.224,72.006 236.043,72.258 236.168 C 73.111 236.591,73.357 235.018,73.410 228.800 C 73.441 225.224,73.665 221.995,73.940 221.170 C 74.202 220.383,74.668 218.180,74.977 216.273 C 75.286 214.366,75.995 211.859,76.554 210.703 C 77.113 209.546,77.656 208.150,77.762 207.600 C 78.123 205.726,81.199 197.190,84.364 189.279 C 84.831 188.113,85.249 186.718,85.293 186.179 C 85.338 185.641,85.508 185.200,85.672 185.200 C 86.128 185.200,87.200 181.241,87.200 179.555 C 87.200 178.312,87.352 178.034,88.087 177.928 C 89.187 177.769,89.917 175.637,89.325 174.310 C 88.781 173.091,86.455 172.997,86.193 174.184 M100.400 211.600 C 100.070 211.813,99.440 211.994,99.000 212.001 C 95.439 212.060,91.975 225.337,93.209 234.200 C 93.423 235.740,93.608 237.270,93.619 237.600 C 93.631 237.930,93.805 239.640,94.007 241.400 C 94.208 243.160,94.469 247.120,94.586 250.200 C 94.704 253.280,95.016 257.825,95.280 260.300 L 95.760 264.800 96.880 264.800 C 97.609 264.800,98.000 264.590,98.000 264.200 C 98.000 263.870,97.798 263.600,97.551 263.600 C 97.222 263.600,97.223 263.454,97.557 263.052 C 97.880 262.662,97.981 258.777,97.906 249.552 L 97.800 236.600 96.700 236.473 L 95.600 236.347 95.600 230.350 C 95.600 225.919,95.479 224.427,95.138 224.638 C 94.850 224.816,94.785 224.748,94.966 224.455 C 95.125 224.198,95.415 224.085,95.609 224.206 C 97.225 225.204,98.000 223.957,98.000 220.357 L 98.000 216.800 99.400 216.800 C 100.689 216.800,100.800 216.705,100.800 215.600 L 100.800 214.400 103.200 214.400 L 105.600 214.400 105.600 215.600 C 105.600 216.664,105.735 216.800,106.788 216.800 L 107.975 216.800 108.088 221.700 L 108.200 226.600 109.300 226.727 L 110.400 226.853 110.400 231.627 L 110.400 236.400 111.584 236.400 L 112.769 236.400 112.884 239.900 C 113.000 243.388,113.004 243.400,114.100 243.527 C 115.199 243.653,115.371 244.345,115.184 247.900 C 115.176 248.065,115.761 248.290,116.484 248.400 L 117.800 248.600 117.674 251.303 C 117.507 254.883,117.762 255.600,119.204 255.600 C 121.481 255.600,121.957 252.174,120.230 248.223 C 119.936 247.551,119.294 245.830,118.804 244.400 C 118.313 242.970,117.679 241.260,117.393 240.600 C 117.108 239.940,116.567 238.320,116.191 237.000 C 115.815 235.680,115.274 234.060,114.989 233.400 C 114.704 232.740,114.362 231.501,114.229 230.647 C 113.909 228.586,112.095 220.877,111.140 217.520 C 109.886 213.108,103.507 209.592,100.400 211.600 M325.627 237.600 C 325.342 239.432,325.361 239.999,325.697 239.663 C 325.898 239.462,325.985 238.781,325.891 238.149 C 325.797 237.517,325.678 237.270,325.627 237.600 M324.791 241.903 C 324.119 242.756,324.000 243.530,324.000 247.028 C 324.000 252.573,324.264 253.200,326.601 253.200 L 328.421 253.200 328.311 247.316 L 328.200 241.432 326.891 241.165 C 325.794 240.941,325.453 241.060,324.791 241.903 M325.690 254.300 C 325.641 254.575,325.330 254.800,325.000 254.800 C 324.670 254.800,324.400 254.991,324.400 255.224 C 324.400 255.457,324.220 255.536,324.000 255.400 C 323.535 255.113,323.505 255.702,323.575 263.600 C 323.604 266.790,323.804 270.753,324.020 272.407 C 324.578 276.682,324.624 293.271,324.087 296.400 C 322.485 305.722,322.170 313.527,323.384 313.832 C 325.744 314.424,325.790 314.315,325.911 307.895 C 326.008 302.709,326.209 301.574,326.939 302.100 C 328.244 303.042,328.400 301.166,328.400 284.551 L 328.400 268.000 327.209 268.000 L 326.018 268.000 325.899 260.900 C 325.834 256.995,325.740 254.025,325.690 254.300 M120.000 257.000 C 120.000 257.330,120.315 257.586,120.700 257.568 C 121.122 257.549,121.201 257.456,120.898 257.334 C 120.621 257.223,120.497 256.967,120.621 256.766 C 120.745 256.565,120.657 256.400,120.424 256.400 C 120.191 256.400,120.000 256.670,120.000 257.000 M120.069 261.590 C 120.088 264.359,120.223 265.212,120.647 265.250 C 121.196 265.300,121.725 265.411,122.300 265.597 C 122.465 265.651,122.765 265.663,122.968 265.625 C 123.170 265.586,123.146 265.790,122.915 266.077 C 121.539 267.786,122.461 275.200,124.049 275.200 C 124.712 275.200,124.806 275.550,124.850 278.200 C 124.917 282.201,124.896 282.109,125.731 282.231 C 126.996 282.417,127.659 282.781,127.424 283.161 C 126.997 283.853,127.686 284.800,128.616 284.800 C 129.552 284.800,130.289 286.008,129.818 286.771 C 129.690 286.978,130.173 287.205,130.892 287.274 L 132.200 287.400 132.200 290.714 L 132.200 294.029 133.400 294.343 C 134.298 294.578,134.611 294.902,134.643 295.629 C 134.667 296.163,134.712 297.185,134.743 297.900 C 134.794 299.063,134.926 299.200,135.990 299.200 L 137.179 299.200 137.138 302.428 C 137.094 305.809,137.326 306.399,138.740 306.505 C 139.498 306.563,140.078 309.338,139.500 310.139 C 139.247 310.488,140.578 311.600,141.249 311.600 C 141.817 311.600,142.000 311.893,142.000 312.800 C 142.000 313.460,142.135 313.979,142.300 313.953 C 143.698 313.732,144.356 314.079,144.473 315.100 C 144.573 315.964,144.836 316.227,145.700 316.327 C 146.740 316.446,147.196 318.085,146.855 320.476 C 146.798 320.879,148.325 321.294,148.796 321.002 C 149.037 320.853,149.200 321.292,149.200 322.089 C 149.200 323.248,149.341 323.437,150.268 323.514 C 151.615 323.625,151.500 323.425,151.690 326.000 C 151.840 328.041,151.929 328.209,152.926 328.327 C 153.919 328.444,154.266 329.116,154.047 330.500 C 154.021 330.665,154.135 330.779,154.300 330.753 C 155.698 330.532,156.356 330.879,156.473 331.900 C 156.572 332.757,156.838 333.027,157.676 333.124 C 158.507 333.220,158.780 333.493,158.876 334.324 C 158.972 335.156,159.244 335.428,160.076 335.524 C 160.907 335.620,161.180 335.893,161.276 336.724 C 161.373 337.562,161.643 337.828,162.500 337.927 C 163.551 338.047,163.600 338.151,163.600 340.247 C 163.600 342.326,163.663 342.464,164.800 342.860 C 165.884 343.238,166.000 343.445,166.000 345.011 C 166.000 346.781,166.746 348.000,167.829 348.000 C 168.244 348.000,168.400 348.523,168.400 349.920 C 168.400 352.037,168.895 352.800,170.267 352.800 C 170.949 352.800,171.111 352.965,170.919 353.466 C 170.738 353.937,170.812 354.040,171.172 353.817 C 171.573 353.570,171.584 353.682,171.226 354.352 C 170.976 354.818,170.418 355.200,169.986 355.200 C 169.554 355.200,169.200 355.395,169.200 355.633 C 169.200 355.872,168.975 355.984,168.700 355.883 C 168.425 355.782,168.256 355.464,168.325 355.176 C 168.498 354.448,168.049 352.795,167.693 352.850 C 166.436 353.043,166.000 352.721,166.000 351.600 L 166.000 350.400 162.400 350.400 L 158.800 350.400 158.800 349.200 L 158.800 348.000 156.400 348.000 L 154.000 348.000 154.000 346.800 C 154.000 345.733,153.867 345.600,152.800 345.600 C 151.656 345.600,151.312 345.022,151.553 343.500 C 151.579 343.335,151.060 343.200,150.400 343.200 C 149.256 343.200,148.912 342.622,149.153 341.100 C 149.179 340.935,148.660 340.800,148.000 340.800 C 146.856 340.800,146.512 340.222,146.753 338.700 C 146.799 338.405,145.884 338.242,144.900 338.370 C 144.617 338.407,144.400 338.004,144.400 337.441 C 144.400 336.409,143.831 335.829,142.800 335.811 C 142.446 335.804,142.148 335.349,142.073 334.700 C 141.987 333.945,141.704 333.584,141.173 333.550 C 140.748 333.523,140.175 333.478,139.900 333.450 C 139.625 333.423,139.310 332.858,139.200 332.196 C 139.071 331.418,138.752 330.975,138.300 330.946 C 137.915 330.921,137.420 330.878,137.200 330.850 C 136.980 330.822,136.800 330.260,136.800 329.600 C 136.800 328.940,136.665 328.421,136.500 328.447 C 134.999 328.684,134.400 328.341,134.400 327.244 C 134.400 326.577,134.189 326.097,133.900 326.107 C 132.290 326.167,132.000 325.968,132.000 324.800 C 132.000 323.739,131.864 323.600,130.827 323.600 C 129.844 323.600,129.633 323.421,129.527 322.500 C 129.428 321.643,129.162 321.373,128.324 321.276 C 127.493 321.180,127.220 320.907,127.124 320.076 C 127.027 319.238,126.757 318.972,125.900 318.873 C 124.838 318.751,124.800 318.665,124.800 316.373 C 124.800 314.003,124.799 314.000,123.600 314.000 C 122.583 314.000,122.400 313.846,122.400 312.990 C 122.400 312.192,122.153 311.931,121.222 311.744 C 120.322 311.564,120.016 311.260,119.922 310.454 C 119.828 309.639,119.551 309.371,118.700 309.273 C 117.638 309.151,117.600 309.065,117.600 306.773 C 117.600 304.403,117.599 304.400,116.400 304.400 C 115.252 304.400,115.198 304.322,115.150 302.600 C 115.073 299.819,115.068 299.808,113.900 299.673 C 112.825 299.550,112.421 297.987,112.770 295.300 C 112.807 295.017,112.404 294.800,111.841 294.800 C 110.573 294.800,110.434 294.545,110.346 292.053 C 110.306 290.924,110.122 289.978,109.937 289.950 C 109.751 289.923,109.420 289.855,109.200 289.800 C 108.980 289.745,108.620 289.678,108.400 289.650 C 108.180 289.623,108.000 288.629,108.000 287.443 C 108.000 285.238,107.679 284.799,106.067 284.801 C 105.521 284.801,105.400 284.383,105.400 282.501 C 105.400 280.288,105.358 280.195,104.300 280.073 C 103.433 279.974,103.200 279.739,103.200 278.963 C 103.200 278.191,102.943 277.929,102.000 277.740 C 100.607 277.461,100.686 277.813,100.789 272.312 C 100.908 265.942,100.764 265.531,98.464 265.680 L 96.600 265.800 96.672 268.510 C 96.712 270.001,96.923 271.801,97.140 272.510 C 97.357 273.220,97.649 274.643,97.788 275.674 C 98.012 277.333,99.600 278.576,99.600 277.091 C 99.600 276.905,99.807 276.881,100.061 277.037 C 100.393 277.243,100.361 277.444,99.944 277.761 C 99.065 278.429,99.424 280.368,100.783 282.296 C 101.452 283.246,102.000 284.184,102.000 284.381 C 102.000 284.578,102.438 285.260,102.974 285.896 C 103.510 286.533,104.073 287.582,104.225 288.227 C 104.377 288.872,104.911 290.210,105.411 291.200 C 106.550 293.454,108.768 298.530,110.218 302.200 C 110.826 303.740,112.137 306.530,113.132 308.400 C 114.710 311.366,115.504 312.592,117.198 314.674 C 117.410 314.935,118.430 316.195,119.464 317.474 C 120.498 318.753,122.369 320.880,123.620 322.200 C 124.871 323.520,126.752 325.590,127.800 326.800 C 129.649 328.935,134.041 333.319,143.040 342.012 C 145.438 344.329,148.300 347.257,149.400 348.518 C 151.375 350.782,155.643 352.986,157.108 352.497 C 157.378 352.407,157.600 352.490,157.600 352.682 C 157.600 352.873,158.156 353.072,158.835 353.124 C 160.374 353.241,164.158 354.813,165.325 355.820 C 165.806 356.235,166.556 356.630,166.990 356.699 C 167.425 356.767,167.929 357.087,168.110 357.411 C 168.291 357.735,168.791 358.000,169.220 358.000 C 169.649 358.000,170.000 358.192,170.000 358.427 C 170.000 358.679,170.532 358.780,171.300 358.673 C 173.150 358.416,174.400 357.964,174.400 357.553 C 174.400 357.359,174.670 357.200,175.000 357.200 C 175.330 357.200,175.579 357.065,175.553 356.900 C 175.427 356.103,175.640 355.578,176.000 355.800 C 176.220 355.936,176.400 355.666,176.400 355.200 C 176.400 354.665,176.231 354.457,175.942 354.636 C 175.619 354.835,175.562 354.605,175.749 353.860 C 175.914 353.204,175.851 352.800,175.584 352.800 C 175.347 352.800,175.252 352.639,175.374 352.442 C 175.496 352.245,175.326 351.981,174.998 351.854 C 174.669 351.728,174.400 351.363,174.400 351.042 C 174.400 350.721,173.928 350.087,173.352 349.634 C 172.012 348.580,171.043 346.756,169.769 342.890 C 167.858 337.091,166.512 334.685,163.873 332.352 C 162.534 331.169,160.762 329.525,159.935 328.700 C 159.108 327.875,158.245 327.200,158.016 327.200 C 157.787 327.200,157.600 326.975,157.600 326.700 C 157.600 326.425,156.970 325.492,156.200 324.627 C 155.430 323.762,154.800 322.940,154.800 322.799 C 154.800 322.659,154.260 321.939,153.600 321.200 C 152.940 320.461,152.400 319.645,152.400 319.387 C 152.400 319.130,151.905 318.364,151.300 317.685 C 150.695 317.007,149.660 315.820,149.000 315.047 C 148.340 314.275,147.334 313.125,146.765 312.493 C 146.196 311.860,145.392 310.771,144.979 310.072 C 144.566 309.372,144.101 308.800,143.946 308.800 C 143.791 308.800,143.353 307.855,142.973 306.700 C 142.592 305.545,141.948 303.973,141.540 303.206 C 141.133 302.439,140.800 301.490,140.800 301.097 C 140.800 300.704,140.165 298.722,139.389 296.691 C 136.046 287.948,134.723 285.340,132.322 282.755 C 131.265 281.618,130.400 280.560,130.400 280.405 C 130.400 280.249,130.063 279.733,129.650 279.258 C 129.238 278.782,128.574 276.955,128.175 275.197 C 127.776 273.438,127.320 272.000,127.162 272.000 C 126.856 272.000,125.200 267.038,125.200 266.120 C 125.200 265.820,124.931 265.472,124.602 265.346 C 124.274 265.219,124.104 264.955,124.226 264.758 C 124.348 264.561,124.262 264.400,124.036 264.400 C 123.810 264.400,123.726 264.137,123.849 263.816 C 123.972 263.496,123.859 262.585,123.598 261.793 C 123.149 260.435,122.900 259.422,122.831 258.671 C 122.814 258.491,122.395 258.395,121.900 258.459 C 121.405 258.523,120.785 258.441,120.522 258.278 C 120.164 258.055,120.050 258.886,120.069 261.590 M67.007 266.577 C 67.101 273.246,66.981 272.607,68.158 272.705 C 69.811 272.842,70.170 271.877,70.251 267.082 C 70.344 261.566,70.082 260.742,68.269 260.865 L 66.928 260.955 67.007 266.577 M69.228 279.051 C 69.244 279.243,69.401 279.760,69.579 280.200 C 69.756 280.640,69.749 281.192,69.563 281.426 C 69.377 281.660,69.264 289.580,69.313 299.026 L 69.400 316.200 70.500 316.327 C 71.571 316.450,71.602 316.525,71.661 319.127 C 71.752 323.115,71.918 323.600,73.197 323.600 C 73.718 323.600,73.986 323.936,74.073 324.700 C 74.173 325.564,74.436 325.827,75.300 325.927 C 76.228 326.033,76.409 326.252,76.459 327.327 C 76.565 329.603,76.596 329.793,76.940 330.327 C 77.128 330.617,77.540 330.755,77.856 330.634 C 78.433 330.412,78.772 330.911,78.967 332.269 C 79.032 332.722,79.467 333.047,80.112 333.124 C 80.904 333.219,81.181 333.505,81.276 334.324 C 81.373 335.162,81.643 335.428,82.500 335.527 C 83.546 335.647,83.957 336.740,83.633 338.542 C 83.600 338.730,83.757 339.107,83.982 339.379 C 84.208 339.651,84.312 339.954,84.214 340.053 C 84.115 340.152,84.407 340.260,84.862 340.295 C 85.886 340.372,85.891 340.377,86.061 341.600 C 86.156 342.283,86.579 342.738,87.398 343.035 C 88.057 343.274,88.615 343.724,88.637 344.035 C 88.739 345.439,88.859 345.600,89.800 345.600 C 90.350 345.600,90.819 345.825,90.842 346.100 C 90.866 346.375,90.918 347.205,90.959 347.945 C 91.034 349.285,92.006 350.400,93.102 350.400 C 93.403 350.400,93.618 350.715,93.579 351.100 C 93.433 352.539,93.624 352.800,94.825 352.800 C 95.769 352.800,96.024 352.961,95.935 353.500 C 95.761 354.557,96.333 355.200,97.447 355.200 C 97.997 355.200,98.368 355.335,98.271 355.500 C 97.840 356.231,98.812 357.600,99.761 357.600 C 100.539 357.600,100.774 357.832,100.873 358.700 C 100.972 359.557,101.238 359.827,102.076 359.924 C 102.907 360.020,103.180 360.293,103.276 361.124 C 103.372 361.956,103.644 362.228,104.476 362.324 C 105.307 362.420,105.580 362.693,105.676 363.524 C 105.773 364.362,106.043 364.628,106.900 364.727 C 107.761 364.826,108.000 365.063,108.000 365.819 C 108.000 366.538,108.280 366.855,109.096 367.060 C 110.421 367.392,111.123 368.032,110.899 368.704 C 110.808 368.977,111.063 369.227,111.467 369.261 C 111.870 369.294,112.380 369.364,112.600 369.415 C 112.820 369.466,113.483 369.528,114.073 369.554 C 114.933 369.591,115.172 369.819,115.273 370.698 C 115.373 371.566,115.652 371.840,116.600 372.003 C 117.264 372.118,117.824 372.476,117.854 372.805 C 117.883 373.132,117.928 373.633,117.954 373.918 C 117.979 374.202,118.225 374.406,118.500 374.370 C 121.054 374.039,122.304 374.419,122.540 375.600 C 122.771 376.757,122.858 376.800,124.958 376.800 C 127.053 376.800,127.147 376.846,127.400 378.000 C 127.621 379.006,127.856 379.200,128.855 379.200 C 129.511 379.200,129.945 379.365,129.821 379.566 C 129.525 380.045,130.308 382.101,130.699 381.871 C 131.141 381.611,132.883 382.341,132.668 382.697 C 132.450 383.056,133.192 383.742,134.016 383.942 C 135.425 384.285,135.907 384.341,137.700 384.369 C 139.429 384.397,139.600 384.486,139.600 385.357 C 139.600 386.727,140.095 386.810,147.939 386.757 C 159.291 386.679,158.726 386.620,158.873 387.900 L 159.000 389.000 166.600 389.095 C 170.780 389.148,174.470 389.078,174.800 388.942 C 175.130 388.805,176.111 388.733,176.979 388.783 C 178.330 388.860,178.487 388.787,178.069 388.283 C 177.675 387.809,177.703 387.646,178.211 387.451 C 178.558 387.318,178.739 387.375,178.614 387.577 C 178.489 387.779,178.598 388.075,178.855 388.234 C 179.148 388.415,179.216 388.350,179.038 388.062 C 178.869 387.788,179.007 387.600,179.376 387.600 C 180.113 387.600,180.231 386.943,179.500 386.913 C 179.225 386.902,177.830 386.776,176.400 386.633 C 170.993 386.092,168.422 385.747,167.200 385.401 C 163.171 384.260,159.256 384.238,158.975 385.355 C 158.694 386.476,158.000 386.792,158.000 385.800 C 158.000 385.470,158.216 385.200,158.480 385.200 C 158.783 385.200,158.820 385.061,158.580 384.822 C 158.102 384.347,154.083 383.727,149.400 383.406 C 145.036 383.106,142.195 382.516,141.587 381.784 C 141.338 381.485,140.338 381.120,139.365 380.974 C 138.335 380.819,136.996 380.232,136.162 379.570 C 135.374 378.944,134.341 378.309,133.865 378.159 C 133.389 378.009,132.374 377.372,131.609 376.743 C 130.844 376.115,129.995 375.600,129.723 375.600 C 129.451 375.600,129.046 375.259,128.823 374.843 C 128.412 374.076,124.693 371.734,122.720 371.001 C 122.126 370.781,121.264 370.195,120.805 369.700 C 120.345 369.205,119.678 368.800,119.324 368.800 C 118.597 368.800,115.636 366.754,114.001 365.123 C 113.408 364.531,112.457 363.929,111.890 363.787 C 111.322 363.644,110.757 363.265,110.634 362.943 C 110.510 362.622,109.597 362.000,108.605 361.561 C 107.612 361.122,106.800 360.559,106.800 360.310 C 106.800 360.061,106.215 359.298,105.500 358.615 C 102.947 356.176,97.789 350.368,97.176 349.242 C 96.833 348.612,96.113 347.543,95.576 346.867 C 95.039 346.192,93.970 344.807,93.200 343.790 C 92.430 342.773,91.462 341.549,91.049 341.071 C 90.636 340.592,90.066 339.656,89.782 338.992 C 89.498 338.327,88.891 337.445,88.433 337.030 C 87.975 336.615,87.600 336.079,87.599 335.838 C 87.597 335.010,84.415 330.598,82.209 328.364 C 80.994 327.134,80.000 325.923,80.000 325.673 C 80.000 325.423,79.563 324.932,79.030 324.583 C 78.496 324.233,77.881 323.433,77.662 322.806 C 77.443 322.178,76.892 321.292,76.438 320.838 C 75.984 320.384,75.317 318.839,74.957 317.406 C 74.597 315.973,74.153 314.800,73.970 314.800 C 73.075 314.800,72.694 311.256,72.591 302.000 C 72.424 286.842,72.020 280.627,71.151 279.829 C 70.810 279.517,70.760 279.536,70.965 279.900 C 71.140 280.210,71.002 280.400,70.600 280.400 C 70.244 280.400,70.051 280.240,70.172 280.045 C 70.293 279.850,70.123 279.468,69.796 279.196 C 69.468 278.924,69.213 278.859,69.228 279.051 M322.200 314.305 C 321.089 314.537,320.020 315.990,320.009 317.284 C 320.004 317.890,319.583 318.771,319.053 319.284 C 318.532 319.788,317.927 320.740,317.708 321.400 C 317.490 322.061,316.836 323.301,316.256 324.156 C 315.675 325.012,315.200 326.200,315.200 326.796 C 315.200 327.456,314.730 328.373,314.000 329.137 C 313.334 329.834,312.800 330.829,312.800 331.374 C 312.800 331.913,312.444 332.604,312.008 332.909 C 311.572 333.215,310.927 334.156,310.574 335.002 C 310.220 335.847,309.497 336.881,308.966 337.299 C 308.435 337.716,308.000 338.474,308.000 338.982 C 308.000 339.581,307.708 339.983,307.170 340.124 C 306.714 340.243,306.239 340.728,306.116 341.201 C 305.992 341.674,305.462 342.224,304.938 342.424 C 304.414 342.623,303.827 343.194,303.632 343.693 C 303.438 344.192,300.565 347.390,297.248 350.800 C 293.932 354.210,291.214 357.126,291.209 357.281 C 291.191 357.861,282.725 365.774,281.281 366.561 C 280.906 366.765,280.204 367.352,279.719 367.866 C 279.235 368.380,278.483 368.800,278.048 368.800 C 277.614 368.800,276.930 369.211,276.529 369.713 C 276.128 370.215,275.038 370.851,274.107 371.127 C 273.175 371.403,272.224 371.982,271.992 372.414 C 271.761 372.846,271.235 373.200,270.824 373.200 C 270.412 373.200,269.359 373.785,268.484 374.500 C 267.609 375.215,266.293 376.160,265.560 376.600 C 262.342 378.531,261.792 378.905,261.664 379.251 C 261.474 379.762,259.383 380.800,258.542 380.800 C 258.158 380.800,257.363 381.260,256.776 381.823 C 256.002 382.565,255.031 382.941,253.239 383.194 C 251.881 383.387,250.011 383.904,249.085 384.345 C 247.978 384.871,246.164 385.226,243.800 385.379 C 241.820 385.507,237.500 385.791,234.200 386.009 C 230.900 386.227,226.670 386.482,224.800 386.575 C 222.930 386.668,221.344 386.757,221.276 386.772 C 221.208 386.787,221.275 386.998,221.425 387.240 C 221.614 387.546,221.436 387.540,220.840 387.221 C 220.369 386.969,219.832 386.856,219.647 386.971 C 218.943 387.406,214.790 387.724,209.320 387.761 C 205.349 387.788,203.490 387.951,203.139 388.301 C 202.671 388.769,184.388 388.693,180.600 388.208 C 179.940 388.123,179.626 388.147,179.902 388.261 C 180.179 388.375,180.303 388.633,180.179 388.834 C 180.044 389.052,184.495 389.200,191.176 389.200 C 201.889 389.200,202.400 389.234,202.400 389.951 C 202.400 391.390,203.219 391.521,212.492 391.564 L 221.583 391.606 221.829 390.626 C 221.965 390.087,221.985 389.500,221.876 389.323 C 221.766 389.145,227.989 389.042,235.704 389.094 C 250.229 389.191,250.800 389.133,250.800 387.551 C 250.800 386.890,251.146 386.794,253.700 386.754 C 257.863 386.688,257.787 386.710,257.927 385.500 C 258.047 384.456,258.160 384.400,260.147 384.400 C 262.339 384.400,263.200 383.926,263.200 382.720 C 263.200 382.232,263.522 381.984,264.200 381.950 C 264.750 381.923,265.380 381.855,265.600 381.800 C 265.820 381.745,266.360 381.678,266.800 381.650 C 267.240 381.623,267.564 381.465,267.521 381.300 C 267.283 380.399,268.136 379.238,269.119 379.125 C 269.714 379.056,270.223 378.775,270.250 378.500 C 270.278 378.225,270.322 377.750,270.350 377.445 C 270.380 377.108,271.102 376.786,272.191 376.622 C 273.176 376.475,274.103 376.156,274.252 375.915 C 274.409 375.661,274.340 375.590,274.089 375.745 C 273.851 375.892,273.525 375.802,273.366 375.545 C 273.193 375.265,273.249 375.183,273.506 375.342 C 273.742 375.488,274.193 375.350,274.507 375.036 C 274.821 374.722,275.600 374.405,276.239 374.332 C 277.168 374.226,277.425 373.980,277.527 373.100 C 277.654 371.991,278.457 371.727,280.924 371.983 C 281.400 372.033,281.806 371.638,282.111 370.829 C 282.463 369.897,282.823 369.600,283.600 369.600 C 284.422 369.600,284.643 369.388,284.714 368.532 C 284.822 367.223,284.823 367.222,286.104 367.116 C 286.676 367.069,287.135 366.933,287.124 366.815 C 286.996 365.367,287.291 364.843,288.300 364.727 C 289.164 364.627,289.427 364.364,289.527 363.500 C 289.633 362.579,289.844 362.400,290.827 362.400 C 291.858 362.400,292.000 362.258,292.000 361.227 C 292.000 360.244,292.179 360.033,293.100 359.927 C 293.957 359.828,294.227 359.562,294.324 358.724 C 294.420 357.893,294.693 357.620,295.524 357.524 C 296.362 357.427,296.628 357.157,296.727 356.300 C 296.844 355.279,297.502 354.932,298.900 355.153 C 299.065 355.179,299.200 354.660,299.200 354.000 C 299.200 353.340,299.380 352.778,299.600 352.750 C 299.820 352.723,300.387 352.678,300.860 352.650 C 301.448 352.616,301.768 352.289,301.870 351.617 C 302.021 350.629,302.727 349.908,303.236 350.222 C 303.386 350.315,303.694 350.168,303.921 349.896 C 304.347 349.381,304.400 349.197,304.400 348.213 C 304.400 347.879,304.637 347.716,304.948 347.836 C 305.678 348.116,306.825 346.931,306.541 346.191 C 306.321 345.617,307.876 344.704,308.476 345.056 C 308.627 345.145,308.758 344.898,308.767 344.509 C 308.775 344.119,308.861 343.350,308.958 342.800 C 309.054 342.250,309.148 341.589,309.167 341.332 C 309.185 341.074,309.740 340.745,310.400 340.600 C 311.399 340.381,311.600 340.141,311.600 339.168 C 311.600 338.137,311.741 338.000,312.800 338.000 L 314.000 338.000 314.000 335.600 C 314.000 333.242,314.019 333.200,315.113 333.200 C 316.032 333.200,316.241 333.013,316.315 332.122 C 316.413 330.939,317.033 330.361,317.864 330.680 C 318.159 330.793,318.427 330.641,318.461 330.343 C 318.494 330.044,318.564 329.620,318.615 329.400 C 318.666 329.180,318.728 328.337,318.754 327.527 C 318.794 326.230,318.932 326.038,319.900 325.927 C 320.941 325.807,321.006 325.677,321.120 323.500 C 321.206 321.842,321.402 321.186,321.820 321.150 C 322.139 321.123,322.625 321.078,322.900 321.050 C 323.480 320.992,323.879 314.887,323.333 314.422 C 323.150 314.266,322.640 314.213,322.200 314.305 " stroke="none" fill="#e3ddd8" fill-rule="evenodd"></path></g></svg>